<svg width="52" height="52" viewBox="0 0 52 52" fill="none" xmlns="http://www.w3.org/2000/svg">
<g clip-path="url(#clip0_127_2516)">
<path fill-rule="evenodd" clip-rule="evenodd" d="M25.7576 0C11.5265 0 0 11.9293 0 26.6576C0 38.4537 7.3731 48.4169 17.6117 51.949C18.8996 52.1823 19.3826 51.3825 19.3826 50.6828C19.3826 50.0497 19.3504 47.9504 19.3504 45.7179C12.8788 46.9508 11.2045 44.0851 10.6894 42.5856C10.3996 41.8191 9.1439 39.4533 8.0492 38.8202C7.1477 38.3204 5.8598 37.0874 8.017 37.0542C10.0455 37.0208 11.4943 38.9868 11.9773 39.7866C14.2955 43.8185 17.9981 42.6855 19.4792 41.9857C19.7045 40.253 20.3807 39.0867 21.1212 38.4203C15.3902 37.7539 9.4015 35.4546 9.4015 25.2581C9.4015 22.3591 10.3996 19.9599 12.0417 18.0939C11.7841 17.4274 10.8826 14.695 12.2992 11.0296C12.2992 11.0296 14.4564 10.3298 19.3826 13.762C21.4432 13.1622 23.6326 12.8623 25.822 12.8623C28.0114 12.8623 30.2008 13.1622 32.2614 13.762C37.1875 10.2965 39.3447 11.0296 39.3447 11.0296C40.7614 14.695 39.8598 17.4274 39.6023 18.0939C41.2443 19.9599 42.2424 22.3258 42.2424 25.2581C42.2424 35.488 36.2216 37.7539 30.4905 38.4203C31.4242 39.2533 32.2292 40.8529 32.2292 43.352C32.2292 46.9174 32.197 49.7831 32.197 50.6828C32.197 51.3825 32.6799 52.2157 33.9678 51.949C44.142 48.4169 51.5151 38.4203 51.5151 26.6576C51.5151 11.9293 39.9886 0 25.7576 0Z" fill="#292929"/>
</g>
<defs>
<clipPath id="clip0_127_2516">
<rect width="52" height="52" fill="white"/>
</clipPath>
</defs>
</svg>
