<svg width="54" height="54" viewBox="0 0 54 54" fill="none" xmlns="http://www.w3.org/2000/svg">
<path d="M3.6354 47H12.1182V26.3992L0 17.3105V43.3646C0 45.3762 1.6299 47 3.6354 47Z" fill="#292929"/>
<path d="M41.2031 47H49.6858C51.6975 47 53.3213 45.3702 53.3213 43.3646V17.3105L41.2031 26.3992" fill="#292929"/>
<path d="M41.2031 10.6458V26.3994L53.3213 17.3108V12.4635C53.3213 7.96761 48.1892 5.40471 44.5962 8.10091" fill="#292929"/>
<path d="M12.1172 26.3991V10.6455L26.659 21.5519L41.2008 10.6455V26.3991L26.659 37.3055" fill="#292929"/>
<path d="M0 12.4635V17.3108L12.1182 26.3994V10.6458L8.7251 8.10091C5.126 5.40471 0 7.96761 0 12.4635Z" fill="#292929"/>
</svg>
