<svg width="51" height="51" viewBox="0 0 51 51" fill="none" xmlns="http://www.w3.org/2000/svg">
<g clip-path="url(#clip0_127_2524)">
<path d="M0 3.5838C0 1.6057 1.6561 0 3.6975 0H46.3325C48.3747 0 50.03 1.6057 50.03 3.5838V46.4468C50.03 48.4255 48.3747 50.03 46.3325 50.03H3.6975C1.6563 50.03 0 48.4257 0 46.4474V3.5838Z" fill="#292929"/>
<path d="M15.2012 41.8686V19.345H7.71474V41.8686H15.2012ZM11.4595 16.2703C14.0697 16.2703 15.6947 14.5407 15.6947 12.3793C15.6458 10.1686 14.0697 8.4873 11.5092 8.4873C8.94694 8.4873 7.27344 10.1686 7.27344 12.3791C7.27344 14.5405 8.89784 16.2701 11.4105 16.2701L11.4595 16.2703ZM19.3451 41.8686H26.8311V29.2918C26.8311 28.6195 26.8799 27.9455 27.0777 27.4653C27.6186 26.1198 28.8504 24.7269 30.9191 24.7269C33.6273 24.7269 34.7114 26.7922 34.7114 29.8204V41.8686H42.1971V28.9543C42.1971 22.0363 38.5043 18.8169 33.5789 18.8169C29.5407 18.8169 27.7672 21.074 26.7818 22.6112H26.8316V19.3458H19.3455C19.4432 21.4588 19.3451 41.8686 19.3451 41.8686Z" fill="white"/>
</g>
<defs>
<clipPath id="clip0_127_2524">
<rect width="51" height="51" fill="white"/>
</clipPath>
</defs>
</svg>
