<svg width="36" height="36" viewBox="0 0 36 36" fill="none" xmlns="http://www.w3.org/2000/svg">
<g clip-path="url(#clip0_30_411)">
<path fill-rule="evenodd" clip-rule="evenodd" d="M34.3855 6.61764C35.6607 5.93533 36.2892 4.40984 35.8037 2.99813C35.2648 1.43135 33.5579 0.598036 31.9911 1.13688C30.2118 1.74883 29.2902 3.32455 28.8142 4.33846C28.2733 5.49078 27.8718 6.88592 27.5419 8.28529C27.1297 10.0335 26.7498 12.171 26.369 14.3137C26.3351 14.5047 26.3011 14.6957 26.2672 14.8866H21.147C21.3298 14.5445 21.449 14.1611 21.4871 13.7507C21.75 10.9235 21.9078 8.00427 21.2659 5.73652C20.9216 4.51987 20.284 3.24538 19.0939 2.29762C17.8839 1.334 16.4377 0.973793 14.9872 0.973793C10.9461 0.973793 8.58755 4.01738 7.24919 6.80615C5.87245 9.6749 5.02008 13.3475 4.36325 16.7359C4.09525 18.1185 3.86172 19.4378 3.64055 20.6874C3.2875 22.682 2.96593 24.4988 2.58583 26.111C2.28365 27.3928 1.99459 28.3043 1.72198 28.8851C1.66592 29.0045 1.61876 29.0926 1.58209 29.1555C0.306853 29.8378 -0.321606 31.3633 0.163902 32.775C0.702743 34.3418 2.40969 35.1751 3.97648 34.6362C5.75584 34.0243 6.67739 32.4486 7.15334 31.4347C7.69426 30.2823 8.09582 28.8872 8.42573 27.4878C8.83789 25.7396 9.21775 23.6021 9.59854 21.4595C9.63249 21.2685 9.66644 21.0774 9.70043 20.8866H14.953C14.7136 21.2703 14.5576 21.7142 14.5129 22.1953C14.2519 25.0028 14.0816 27.8951 14.7198 30.1299C15.0659 31.3415 15.7118 32.6029 16.9156 33.5314C18.1269 34.4656 19.5612 34.7993 20.9804 34.7993C25.0215 34.7993 27.38 31.7557 28.7184 28.967C30.0951 26.0982 30.9475 22.4256 31.6043 19.0372C31.8723 17.6546 32.1059 16.3353 32.327 15.0857C32.6801 13.0911 33.0017 11.2743 33.3818 9.6621C33.6839 8.38036 33.973 7.46879 34.2456 6.88804C34.3017 6.76862 34.3488 6.68051 34.3855 6.61764ZM20.0464 20.8866C20.3817 21.4239 20.5503 22.0714 20.4871 22.7507C20.2102 25.7294 20.2087 27.5002 20.4891 28.4821C20.53 28.6252 20.5673 28.7147 20.5932 28.7668C20.6614 28.782 20.7835 28.7993 20.9804 28.7993C21.4342 28.7993 22.2595 28.5579 23.3091 26.371C24.0092 24.9121 24.5792 23.0279 25.0807 20.8866H20.0464ZM20.5219 28.7448C20.5222 28.7445 20.527 28.7463 20.5356 28.7509C20.5259 28.7474 20.5216 28.7451 20.5219 28.7448ZM20.6229 28.8194C20.6277 28.8249 20.6299 28.8281 20.6298 28.8283C20.6297 28.8286 20.6273 28.8258 20.6229 28.8194ZM10.8869 14.8866H15.8535C15.5854 14.3857 15.4563 13.8033 15.5129 13.1953C15.788 10.2362 15.7857 8.40584 15.4927 7.37056C15.4368 7.17284 15.3851 7.06183 15.3537 7.00622C15.2924 6.99151 15.1778 6.97379 14.9872 6.97379C14.5334 6.97379 13.7081 7.21517 12.6585 9.40214C11.9584 10.8611 11.3884 12.7452 10.8869 14.8866ZM15.4116 7.02552C15.4113 7.02587 15.4056 7.02385 15.3958 7.01837C15.4071 7.02242 15.412 7.02516 15.4116 7.02552ZM15.3283 6.96606C15.3243 6.9618 15.3224 6.95933 15.3225 6.95917C15.3226 6.959 15.3246 6.96113 15.3283 6.96606ZM1.49313 29.2885C1.49298 29.2879 1.49847 29.2805 1.51007 29.2679C1.49908 29.2828 1.49329 29.2891 1.49313 29.2885ZM34.4575 6.50523C34.4685 6.4903 34.4743 6.484 34.4745 6.48459C34.4746 6.48517 34.4691 6.49263 34.4575 6.50523ZM34.3852 3.48596C34.6546 4.26936 34.238 5.12283 33.4546 5.39225C33.4583 5.39096 33.4603 5.3903 33.4604 5.39057C33.4621 5.39371 33.2302 5.52114 32.8878 6.25065C32.5481 6.97428 32.2309 8.00675 31.9218 9.31789C31.5338 10.9635 31.1982 12.8576 30.8379 14.891C30.6176 16.1341 30.3881 17.4293 30.1318 18.7517C29.4756 22.1367 28.6514 25.6397 27.3661 28.318C26.0999 30.9563 24.1247 33.2993 20.9804 33.2993C19.7928 33.2993 18.7111 33.0218 17.8316 32.3436C16.9559 31.6682 16.45 30.7258 16.1621 29.7179C15.6133 27.7964 15.7414 25.1845 16.0064 22.3341C16.0831 21.5093 16.814 20.9027 17.6388 20.9794C18.4637 21.0561 19.0702 21.787 18.9936 22.6118C18.7206 25.5478 18.6769 27.599 19.0468 28.8941C19.2183 29.4945 19.4443 29.7987 19.6637 29.968C19.8794 30.1343 20.256 30.2993 20.9804 30.2993C22.331 30.2993 23.5396 29.3574 24.6614 27.02C25.6317 24.9982 26.3426 22.3058 26.9456 19.3866H8.4454C8.33149 20.0134 8.21969 20.6431 8.10872 21.2681C7.73451 23.3757 7.36976 25.43 6.96576 27.1436C6.64278 28.5136 6.26934 29.7878 5.7955 30.7973C5.35414 31.7375 4.65926 32.8152 3.48865 33.2178C2.70525 33.4872 1.85178 33.0705 1.58236 32.2872C1.31294 31.5038 1.72959 30.6503 2.51299 30.3809C2.50924 30.3822 2.50734 30.3828 2.50719 30.3825C2.50552 30.3794 2.73738 30.252 3.07982 29.5225C3.41951 28.7988 3.7367 27.7664 4.04581 26.4552C4.43378 24.8096 4.7694 22.9155 5.12972 20.8821C5.34999 19.639 5.5795 18.3438 5.83583 17.0214C6.492 13.6364 7.31617 10.1335 8.60152 7.45515C9.86768 4.81682 11.8429 2.47379 14.9872 2.47379C16.1904 2.47379 17.2791 2.76993 18.1594 3.47099C19.0298 4.16411 19.5336 5.12383 19.8226 6.14503C20.3773 8.10466 20.2595 10.7517 19.9936 13.6118C19.9169 14.4367 19.186 15.0432 18.3611 14.9665C17.5363 14.8898 16.9297 14.159 17.0064 13.3341C17.2785 10.408 17.3163 8.30545 16.936 6.96205C16.7576 6.33174 16.5214 6.00158 16.2905 5.81771C16.0696 5.64178 15.696 5.47379 14.9872 5.47379C13.6366 5.47379 12.4279 6.41572 11.3062 8.75314C10.3359 10.7749 9.62494 13.4674 9.02202 16.3866H27.5222C27.6361 15.7597 27.7479 15.13 27.8589 14.505C28.2331 12.3975 28.5978 10.3431 29.0018 8.62949C29.3248 7.25953 29.6982 5.98528 30.1721 4.97586C30.6134 4.03564 31.3083 2.95793 32.4789 2.55534C33.2623 2.28592 34.1158 2.70257 34.3852 3.48596Z" fill="#292929"/>
</g>
<defs>
<clipPath id="clip0_30_411">
<rect width="36" height="34.0541" fill="white" transform="translate(0 0.972977)"/>
</clipPath>
</defs>
</svg>
